<svg height="480pt" viewBox="0 -4 480 480" width="480pt" xmlns="http://www.w3.org/2000/svg"><path d="m448 344c-17.648438 0-32 14.351562-32 32h16c0-8.824219 7.175781-16 16-16s16 7.175781 16 16-7.175781 16-16 16h-184c-13.230469 0-24 10.769531-24 24s10.769531 24 24 24h48c4.414062 0 8 3.585938 8 8s-3.585938 8-8 8h-292.6875c-1.824219 0-3.3125-1.488281-3.3125-3.3125 0-.871094.351562-1.726562.96875-2.34375l12.6875-12.6875-11.3125-11.3125-12.6875 12.6875c-3.59375 3.59375-5.65625 8.570312-5.65625 13.65625 0 10.648438 8.664062 19.3125 19.3125 19.3125h292.6875c13.230469 0 24-10.769531 24-24s-10.769531-24-24-24h-48c-4.414062 0-8-3.585938-8-8s3.585938-8 8-8h184c17.648438 0 32-14.351562 32-32s-14.351562-32-32-32zm0 0"/><path d="m307.308594 64.007812 28.6875-28.6875 12.6875 12.6875-28.683594 28.6875zm0 0"/><path d="m415.3125 28.003906 24.6875-24.683594 12.6875 12.6875-24.6875 24.683594zm0 0"/><path d="m184.96875 160c2.359375 0 4.671875-.953125 6.34375-2.625l142.0625-142.0625c1.671875-1.671875 2.625-3.984375 2.625-6.34375 0-4.945312-4.023438-8.96875-8.96875-8.96875-2.359375 0-4.671875.953125-6.34375 2.625l-142.0625 142.0625c-1.671875 1.671875-2.625 3.984375-2.625 6.34375 0 4.945312 4.023438 8.96875 8.96875 8.96875zm0 0"/><path d="m336 156.6875 84.6875-84.6875c2.136719-2.144531 3.3125-4.984375 3.3125-8 0-3.023438-1.175781-5.855469-3.3125-8l-20.6875-20.6875c-4.28125-4.265625-11.742188-4.273438-15.992188-.007812l-84.695312 84.695312zm0 0"/><path d="m107.308594 311.996094 12.691406-12.691406 36.683594 36.6875-12.6875 12.6875zm0 0"/><path d="m131.3125 287.996094 156.6875-156.6875 36.683594 36.683594-156.6875 156.6875zm0 0"/><path d="m65.054688 392h-1.054688v-1.054688l-32.992188 21.992188-4.015624 16.070312 16.070312-4.015624zm0 0"/><path d="m129.984375 357.296875-31.28125-31.28125-18.703125 43.625v6.359375h6.359375zm0 0"/></svg>